<?xml version="1.0" encoding="iso-8859-1"?>
<!-- Generator: Adobe Illustrator 16.0.0, SVG Export Plug-In . SVG Version: 6.00 Build 0)  -->
<!DOCTYPE svg PUBLIC "-//W3C//DTD SVG 1.1//EN" "http://www.w3.org/Graphics/SVG/1.1/DTD/svg11.dtd">
<svg version="1.1" id="Capa_1" xmlns="http://www.w3.org/2000/svg" xmlns:xlink="http://www.w3.org/1999/xlink" x="0px" y="0px"
	 width="34.312px" height="34.311px" viewBox="0 0 34.312 34.311" style="enable-background:new 0 0 34.312 34.311;"
	 xml:space="preserve">
<path style="fill:#000000;" d="M17.78,10.148c0-0.752-0.611-1.365-1.367-1.365c-0.758,0-1.371,0.613-1.371,1.365v6.133v2.732v0.004
	h2.736l0,0h6.134c0.753,0,1.366-0.611,1.366-1.369c0-0.756-0.613-1.367-1.366-1.367h-6.134L17.78,10.148z"/>
<path style="fill:#000000;" d="M28.678,7.365l3.033,3.031l2.601-2.596c0,0-2.34-4.59-7.801-7.801l-2.599,2.6l3.032,3.031l0,0
	l0.002,0.002l-0.66,0.658c-2.785-2.389-6.396-3.842-10.355-3.842C7.132,2.449,0,9.582,0,18.383c0,8.795,7.132,15.928,15.931,15.928
	s15.93-7.133,15.93-15.928c0-3.959-1.452-7.572-3.839-10.357L28.678,7.365z M15.938,29.486c-6.099,0-11.063-4.959-11.063-11.057
	c0-6.105,4.964-11.068,11.063-11.068c6.102,0,11.061,4.963,11.061,11.068C26.999,24.527,22.04,29.486,15.938,29.486z"/>
<g>
</g>
<g>
</g>
<g>
</g>
<g>
</g>
<g>
</g>
<g>
</g>
<g>
</g>
<g>
</g>
<g>
</g>
<g>
</g>
<g>
</g>
<g>
</g>
<g>
</g>
<g>
</g>
<g>
</g>
</svg>
