<?xml version="1.0" encoding="utf-8"?>
<!-- Generator: Adobe Illustrator 17.0.0, SVG Export Plug-In . SVG Version: 6.00 Build 0)  -->
<!DOCTYPE svg PUBLIC "-//W3C//DTD SVG 1.1//EN" "http://www.w3.org/Graphics/SVG/1.1/DTD/svg11.dtd">
<svg version="1.1" id="Capa_1" xmlns="http://www.w3.org/2000/svg" xmlns:xlink="http://www.w3.org/1999/xlink" x="0px" y="0px"
	 width="64px" height="64px" viewBox="0 0 64 64" enable-background="new 0 0 64 64" xml:space="preserve">
<path d="M34.42,25.551v-14.24h-3.191c-1.625,0-2.947,1.319-2.947,2.948v14.239h3.192C33.102,28.498,34.42,27.181,34.42,25.551z"/>
<path d="M25.719,24.377l-1.487-2.542c-0.824-1.406-2.647-1.894-3.891-0.841c-3.785,3.212-6.056,7.98-6.056,13.028
	c0,9.406,7.659,17.062,17.066,17.062c9.409,0,17.064-7.655,17.064-17.062c-0.003-5.021-2.244-9.773-6.002-12.984
	c-1.234-1.06-3.062-0.575-3.889,0.826l-1.497,2.537c3.39,1.999,5.493,5.687,5.496,9.621c0,6.159-5.014,11.17-11.173,11.17
	c-6.16,0-11.171-5.011-11.171-11.17C20.181,30.072,22.304,26.374,25.719,24.377z"/>
</svg>
