<?xml version="1.0" encoding="iso-8859-1"?>
<!-- Generator: Adobe Illustrator 16.0.0, SVG Export Plug-In . SVG Version: 6.00 Build 0)  -->
<!DOCTYPE svg PUBLIC "-//W3C//DTD SVG 1.1//EN" "http://www.w3.org/Graphics/SVG/1.1/DTD/svg11.dtd">
<svg version="1.1" id="Capa_1" xmlns="http://www.w3.org/2000/svg" xmlns:xlink="http://www.w3.org/1999/xlink" x="0px" y="0px"
	 width="30.985px" height="29.677px" viewBox="0 0 30.985 29.677" style="enable-background:new 0 0 30.985 29.677;"
	 xml:space="preserve">
<path d="M11.013,18.031V1.417C11.013,0.636,10.378,0,9.595,0H1.416C0.632,0,0,0.636,0,1.417v16.613c0,0.78,0.632,1.414,1.416,1.414
	h8.179C10.378,19.444,11.013,18.811,11.013,18.031z M8.662,0.888c0.203,0,0.365,0.161,0.365,0.361c0,0.199-0.162,0.363-0.365,0.363
	c-0.198,0-0.36-0.164-0.36-0.363C8.302,1.049,8.463,0.888,8.662,0.888z M3.609,1.025h3.794v0.414H3.609V1.025z M1.061,14.952V2.391
	h8.893v12.562H1.061z M5.506,18.047c-0.499,0-0.903-0.403-0.903-0.903c0-0.5,0.404-0.903,0.903-0.903s0.903,0.404,0.903,0.903
	C6.409,17.644,6.004,18.047,5.506,18.047z"/>
<polygon points="21.618,11.592 23.398,11.592 23.398,5.062 23.398,3.283 21.618,3.283 12.833,3.283 12.833,5.062 21.618,5.062 "/>
<polygon points="6.048,20.643 4.268,20.643 4.268,24.914 4.268,26.693 6.048,26.693 11.446,26.693 11.446,24.914 6.048,24.914 "/>
<path d="M29.787,12.55H14.188h-1.201v1.208v11.082v1.217h7.18l-0.014,2.924l-1.795,0.009v0.688h1.814h3.628h1.814V28.99L23.79,28.98
	v-2.924h7.196v-1.217V13.758V12.55H29.787z M29.986,24.868H14.179V13.811h15.807V24.868z"/>
<g>
</g>
<g>
</g>
<g>
</g>
<g>
</g>
<g>
</g>
<g>
</g>
<g>
</g>
<g>
</g>
<g>
</g>
<g>
</g>
<g>
</g>
<g>
</g>
<g>
</g>
<g>
</g>
<g>
</g>
</svg>
